# xmcd
#
# Track frame offsets: 
#        150
#        23340
#        46463
#        68223
#        88182
#        110214
#        141744
#        157713
#        176291
#        194893
#        207980
#        230046
#        256086
#        280496
#
# Disc length: 4028 seconds
#
# Revision: 0
# Processed by: cddbd v1.5.2PL0 Copyright (c) Steve Scherf et al.
# Submitted via: ExactAudioCopy v1.0b3
#
DISCID=d10fba0e
DTITLE=Thomas Stelzer - TSt. and Friends – Live In Concert
DYEAR=2012
DGENRE=Blues
TTITLE0=Careless Love
TTITLE1=Mardi Gras In New Orleans
TTITLE2=The Battle Of New Orleans
TTITLE3=Homesick Blues
TTITLE4=Roll'em Pete
TTITLE5=Summertime
TTITLE6=Shake, Rattle and Roll
TTITLE7=Swing To Dr. Ross
TTITLE8=Midnight Hour Blues
TTITLE9=My Hometown Dresden - I Love You
TTITLE10=Fats Domino Tribute
TTITLE11=Willie and The Handjive
TTITLE12=A World I Never Made
TTITLE13=Mess Of Blues
EXTD=
EXTT0=
EXTT1=
EXTT2=
EXTT3=
EXTT4=
EXTT5=
EXTT6=
EXTT7=
EXTT8=
EXTT9=
EXTT10=
EXTT11=
EXTT12=
EXTT13=
PLAYORDER=
